<svg width="16" height="16" viewBox="0 0 16 16" fill="none" xmlns="http://www.w3.org/2000/svg">
<path d="M10 8C10 8.39556 9.8827 8.78224 9.66294 9.11114C9.44318 9.44004 9.13082 9.69638 8.76537 9.84776C8.39991 9.99913 7.99778 10.0387 7.60982 9.96157C7.22186 9.8844 6.86549 9.69392 6.58579 9.41421C6.30608 9.13451 6.1156 8.77814 6.03843 8.39018C5.96126 8.00222 6.00087 7.60009 6.15224 7.23463C6.30362 6.86918 6.55996 6.55682 6.88886 6.33706C7.21776 6.1173 7.60444 6 8 6C8.52993 6.00165 9.03768 6.21289 9.41239 6.58761C9.78711 6.96232 9.99835 7.47007 10 8ZM14.25 5.25V10.75C14.25 11.6783 13.8813 12.5685 13.2249 13.2249C12.5685 13.8813 11.6783 14.25 10.75 14.25H5.25C4.32174 14.25 3.4315 13.8813 2.77513 13.2249C2.11875 12.5685 1.75 11.6783 1.75 10.75V5.25C1.75 4.32174 2.11875 3.4315 2.77513 2.77513C3.4315 2.11875 4.32174 1.75 5.25 1.75H10.75C11.6783 1.75 12.5685 2.11875 13.2249 2.77513C13.8813 3.4315 14.25 4.32174 14.25 5.25ZM11 8C11 7.40666 10.8241 6.82664 10.4944 6.33329C10.1648 5.83994 9.69623 5.45542 9.14805 5.22836C8.59987 5.0013 7.99667 4.94189 7.41473 5.05764C6.83279 5.1734 6.29824 5.45912 5.87868 5.87868C5.45912 6.29824 5.1734 6.83279 5.05764 7.41473C4.94189 7.99667 5.0013 8.59987 5.22836 9.14805C5.45542 9.69623 5.83994 10.1648 6.33329 10.4944C6.82664 10.8241 7.40666 11 8 11C8.79565 11 9.55871 10.6839 10.1213 10.1213C10.6839 9.55871 11 8.79565 11 8ZM12 4.75C12 4.60166 11.956 4.45666 11.8736 4.33332C11.7912 4.20999 11.6741 4.11386 11.537 4.05709C11.4 4.00032 11.2492 3.98547 11.1037 4.01441C10.9582 4.04335 10.8246 4.11478 10.7197 4.21967C10.6148 4.32456 10.5434 4.4582 10.5144 4.60368C10.4855 4.74917 10.5003 4.89997 10.5571 5.03701C10.6139 5.17406 10.71 5.29119 10.8333 5.3736C10.9567 5.45601 11.1017 5.5 11.25 5.5C11.4489 5.5 11.6397 5.42098 11.7803 5.28033C11.921 5.13968 12 4.94891 12 4.75Z" fill="black"/>
</svg>
