<svg width="16" height="16" viewBox="0 0 16 16" fill="none" xmlns="http://www.w3.org/2000/svg">
<path d="M14.9733 4.00008C14.46 4.23341 13.9067 4.38675 13.3333 4.46008C13.92 4.10675 14.3733 3.54675 14.5867 2.87341C14.0333 3.20675 13.42 3.44008 12.7733 3.57341C12.2467 3.00008 11.5067 2.66675 10.6667 2.66675C9.10001 2.66675 7.82001 3.94675 7.82001 5.52675C7.82001 5.75341 7.84667 5.97341 7.89334 6.18008C5.52001 6.06008 3.40667 4.92008 2.00001 3.19341C1.75334 3.61341 1.61334 4.10675 1.61334 4.62675C1.61334 5.62008 2.11334 6.50008 2.88667 7.00008C2.41334 7.00008 1.97334 6.86675 1.58667 6.66675V6.68675C1.58667 8.07341 2.57334 9.23341 3.88001 9.49341C3.46049 9.60822 3.02007 9.62419 2.59334 9.54008C2.77441 10.1084 3.12903 10.6057 3.60735 10.962C4.08567 11.3184 4.66364 11.5159 5.26001 11.5267C4.24909 12.327 2.996 12.7596 1.70667 12.7534C1.48001 12.7534 1.25334 12.7401 1.02667 12.7134C2.29334 13.5267 3.80001 14.0001 5.41334 14.0001C10.6667 14.0001 13.5533 9.64008 13.5533 5.86008C13.5533 5.73341 13.5533 5.61341 13.5467 5.48675C14.1067 5.08675 14.5867 4.58008 14.9733 4.00008Z" fill="black"/>
</svg>
